<mxfile host="app.diagrams.net" agent="Mozilla/5.0 (Windows NT 10.0; Win64; x64; rv:133.0) Gecko/20100101 Firefox/133.0" version="25.0.3">
  <diagram name="Page-1" id="SrTmlPNk7JFvxLV7cF0c">
    <mxGraphModel dx="1145" dy="814" grid="1" gridSize="10" guides="1" tooltips="1" connect="1" arrows="1" fold="1" page="1" pageScale="1" pageWidth="850" pageHeight="1100" math="0" shadow="0">
      <root>
        <mxCell id="0" />
        <mxCell id="1" parent="0" />
        <mxCell id="5ARGfZlktuw_5QcicR3a-1" value="&lt;font style=&quot;font-size: 16px;&quot;&gt;Campaign A&lt;/font&gt;" style="swimlane;whiteSpace=wrap;html=1;" vertex="1" parent="1">
          <mxGeometry x="30" y="250" width="320" height="370" as="geometry" />
        </mxCell>
        <mxCell id="5ARGfZlktuw_5QcicR3a-2" value="&lt;font style=&quot;font-size: 16px;&quot;&gt;Campaign B&lt;br&gt;&lt;/font&gt;" style="swimlane;whiteSpace=wrap;html=1;" vertex="1" parent="1">
          <mxGeometry x="470" y="250" width="320" height="370" as="geometry" />
        </mxCell>
        <mxCell id="5ARGfZlktuw_5QcicR3a-3" value="BlackList" style="swimlane;fontStyle=0;childLayout=stackLayout;horizontal=1;startSize=30;horizontalStack=0;resizeParent=1;resizeParentMax=0;resizeLast=0;collapsible=1;marginBottom=0;whiteSpace=wrap;html=1;" vertex="1" parent="1">
          <mxGeometry x="290" y="80" width="470" height="120" as="geometry" />
        </mxCell>
        <mxCell id="5ARGfZlktuw_5QcicR3a-4" value="Tom&amp;nbsp;&amp;nbsp;&amp;nbsp;&amp;nbsp;&amp;nbsp;&amp;nbsp;&amp;nbsp;&amp;nbsp;&amp;nbsp;&amp;nbsp;&amp;nbsp;&amp;nbsp;&amp;nbsp;&amp;nbsp; TopWinner&amp;nbsp;&amp;nbsp;&amp;nbsp;&amp;nbsp; &amp;nbsp; &amp;nbsp; from: 2024-12-15 00:00:00&amp;nbsp;&amp;nbsp;&amp;nbsp;&amp;nbsp;&amp;nbsp; to: 2024-12-25 23:59:59" style="text;strokeColor=none;fillColor=none;align=left;verticalAlign=middle;spacingLeft=4;spacingRight=4;overflow=hidden;points=[[0,0.5],[1,0.5]];portConstraint=eastwest;rotatable=0;whiteSpace=wrap;html=1;" vertex="1" parent="5ARGfZlktuw_5QcicR3a-3">
          <mxGeometry y="30" width="470" height="30" as="geometry" />
        </mxCell>
        <mxCell id="5ARGfZlktuw_5QcicR3a-5" value="Jerry&amp;nbsp;&amp;nbsp;&amp;nbsp;&amp;nbsp;&amp;nbsp;&amp;nbsp;&amp;nbsp;&amp;nbsp;&amp;nbsp;&amp;nbsp;&amp;nbsp;&amp;nbsp;&amp;nbsp; TopWinner&amp;nbsp;&amp;nbsp;&amp;nbsp;&amp;nbsp;&amp;nbsp;&amp;nbsp;&amp;nbsp;&amp;nbsp; from: 2024-12-15 00:00:00&amp;nbsp;&amp;nbsp;&amp;nbsp;&amp;nbsp;&amp;nbsp;&amp;nbsp; to: 2024-12-25 23:59:59" style="text;strokeColor=none;fillColor=none;align=left;verticalAlign=middle;spacingLeft=4;spacingRight=4;overflow=hidden;points=[[0,0.5],[1,0.5]];portConstraint=eastwest;rotatable=0;whiteSpace=wrap;html=1;" vertex="1" parent="5ARGfZlktuw_5QcicR3a-3">
          <mxGeometry y="60" width="470" height="30" as="geometry" />
        </mxCell>
        <mxCell id="5ARGfZlktuw_5QcicR3a-6" value="Abdullah&amp;nbsp;&amp;nbsp;&amp;nbsp;&amp;nbsp;&amp;nbsp;&amp;nbsp; Fraud&amp;nbsp;&amp;nbsp;&amp;nbsp;&amp;nbsp;&amp;nbsp;&amp;nbsp;&amp;nbsp;&amp;nbsp;&amp;nbsp;&amp;nbsp;&amp;nbsp;&amp;nbsp;&amp;nbsp;&amp;nbsp;&amp;nbsp;&amp;nbsp;&amp;nbsp; from: 2024-12-15 15:05:35 &amp;nbsp;&amp;nbsp;&amp;nbsp;&amp;nbsp;&amp;nbsp; to: 2099-12-31 23:59:59" style="text;strokeColor=none;fillColor=none;align=left;verticalAlign=middle;spacingLeft=4;spacingRight=4;overflow=hidden;points=[[0,0.5],[1,0.5]];portConstraint=eastwest;rotatable=0;whiteSpace=wrap;html=1;" vertex="1" parent="5ARGfZlktuw_5QcicR3a-3">
          <mxGeometry y="90" width="470" height="30" as="geometry" />
        </mxCell>
      </root>
    </mxGraphModel>
  </diagram>
</mxfile>
